<?xml version="1.0" encoding="UTF-8"?>
<svg version="1.1" xmlns="http://www.w3.org/2000/svg" width="512" height="512">
<path d="M0 0 C2.15543743 -0.0043554 4.30879349 -0.04067531 6.46386719 -0.07861328 C16.06558729 -0.15677133 23.57716973 1.10777425 31.67480469 6.55810547 C37.35461925 12.36700673 42.36072884 19.16123931 42.46386719 27.54638672 C42.45097656 28.47837891 42.43808594 29.41037109 42.42480469 30.37060547 C43.42002136 30.23074219 44.41523804 30.09087891 45.44061279 29.94677734 C69.00059709 26.63620105 92.56199313 23.33584402 116.12500763 20.0469017 C130.84855079 17.991749 145.57107089 15.92953878 160.29186583 13.85479498 C171.5512961 12.26801942 182.81187112 10.68961405 194.07342911 9.11800003 C200.49585415 8.22139094 206.91768217 7.3209056 213.33825684 6.41113281 C219.42105297 5.54933962 225.50522911 4.69803139 231.59056091 3.85433578 C233.8259748 3.54256605 236.06087469 3.22708316 238.29518127 2.90747452 C272.66928574 -2.00303539 272.66928574 -2.00303539 282.37011719 3.74560547 C288.87322655 8.888749 292.22952344 15.51194835 293.23786712 23.67556345 C293.31504541 24.35798243 293.3922237 25.04040141 293.47174072 25.74349976 C293.56097817 26.48274732 293.65021561 27.22199488 293.74215722 27.98364389 C294.04172402 30.47956939 294.33133487 32.97655106 294.62109375 35.47363281 C294.83746172 37.29353983 295.05444814 39.1133734 295.27199554 40.9331398 C295.87444767 45.98761488 296.46821506 51.0430792 297.06068707 56.09873247 C297.70819101 61.61103848 298.3635881 67.12240637 299.01812744 72.63388062 C300.18605282 82.47627974 301.34911555 92.3192449 302.51000977 102.16247559 C304.34718135 117.73507665 306.19998186 133.30580112 308.05500698 148.87628412 C311.52507154 178.00324673 314.98047373 207.13191883 318.42219016 236.26224478 C318.90020934 240.30813842 319.37830557 244.35402295 319.85644531 248.39990234 C319.95136861 249.20315031 320.04629191 250.00639827 320.14409167 250.83398709 C321.70836175 264.06913316 323.2807146 277.30330787 324.85581467 290.53716893 C326.50025947 304.35503434 328.13674035 318.1738258 329.76572824 331.99352205 C330.75795249 340.40916422 331.75605953 348.82406167 332.76229158 357.23804067 C333.44499658 362.95184102 334.11987101 368.66653321 334.78873596 374.38197006 C335.17238998 377.65838921 335.56042393 380.93417869 335.9555397 384.20923805 C338.6672551 406.71532719 338.6672551 406.71532719 338.85797119 417.55722046 C338.89173815 418.58989908 338.89173815 418.58989908 338.92618728 419.64343989 C338.90172477 425.83989363 336.50083758 430.79983868 332.67089844 435.54248047 C323.67232289 443.39436929 312.6217105 445.17222888 301.14746094 447.16748047 C299.80499423 447.40762844 298.46266556 447.64854921 297.12046814 447.89019775 C294.33223248 448.39014824 291.5429779 448.88373139 288.75268555 449.37207031 C285.18131751 449.99721854 281.61217452 450.63412005 278.04363346 451.27518845 C275.28266192 451.77064344 272.52100974 452.26220507 269.75909233 452.75235748 C267.80463632 453.0992694 265.8504435 453.44766311 263.89625549 453.79608154 C262.71079636 454.00339905 261.52533722 454.21071655 260.30395508 454.42431641 C259.26235733 454.60766541 258.22075958 454.7910144 257.14759827 454.97991943 C254.42480469 455.37060547 254.42480469 455.37060547 250.42480469 455.37060547 C250.44575195 456.2782666 250.46669922 457.18592773 250.48828125 458.12109375 C250.55671402 461.50938189 250.60672764 464.89692897 250.64453125 468.28564453 C250.66456801 469.74832799 250.69180572 471.21093213 250.7265625 472.67333984 C250.77543694 474.78356557 250.79785128 476.89272683 250.81542969 479.00341797 C250.83637695 480.27072754 250.85732422 481.53803711 250.87890625 482.84375 C250.19558091 488.15091013 247.96635922 490.96781862 244.07025146 494.51320648 C239.17576546 497.63565845 233.34465107 496.91988758 227.74707031 496.87854004 C225.81012676 496.88789998 225.81012676 496.88789998 223.83405304 496.89744902 C220.25615363 496.91413627 216.67868137 496.90589902 213.10078049 496.89350414 C209.23976508 496.88445339 205.37882309 496.89842348 201.51782227 496.90942383 C193.95664089 496.92721341 186.3956183 496.92336714 178.83443069 496.91177326 C172.68949327 496.90274094 166.54460036 496.90151407 160.3996582 496.90586853 C159.52518933 496.90648146 158.65072045 496.90709439 157.74975252 496.9077259 C155.9733041 496.9090048 154.19685569 496.91030165 152.4204073 496.91161627 C135.76133841 496.92302335 119.10235756 496.90990635 102.44330311 496.8884148 C88.14803038 496.8705437 73.85288757 496.87364777 59.55761719 496.89208984 C42.95829885 496.91349429 26.35905768 496.9219247 9.75972748 496.90964079 C7.98980205 496.90836659 6.21987662 496.90710911 4.44995117 496.90586853 C3.57910653 496.90525143 2.70826188 496.90463433 1.811028 496.90399852 C-4.32676514 496.90054435 -10.46450935 496.90637543 -16.60229492 496.91578674 C-24.08189909 496.92700338 -31.56133534 496.92397379 -39.04092026 496.90266377 C-42.85740145 496.89214876 -46.67360264 496.88803899 -50.49008179 496.90126038 C-54.62611879 496.91537214 -58.76144834 496.8985266 -62.89746094 496.87854004 C-64.10543083 496.88746293 -65.31340073 496.89638581 -66.55797577 496.90557909 C-72.85214322 496.84637761 -76.81770653 496.66402563 -81.57519531 492.37060547 C-83.21828419 490.45513288 -84.2818047 488.55942034 -85.57519531 486.37060547 C-86.27515625 486.80115234 -86.97511719 487.23169922 -87.69628906 487.67529297 C-90.62795169 489.40167232 -93.5987621 490.96653414 -96.63769531 492.49560547 C-98.17103516 493.27291016 -98.17103516 493.27291016 -99.73535156 494.06591797 C-108.58785716 498.13295631 -121.4778024 497.88130745 -130.63769531 494.74560547 C-142.71377511 489.45654142 -150.41055432 481.98401174 -155.62988281 469.88623047 C-159.39136731 459.87632957 -158.98734204 446.90097229 -155.03613281 437.02294922 C-154.55402344 436.14767578 -154.07191406 435.27240234 -153.57519531 434.37060547 C-153.2549385 433.73664132 -152.93468168 433.10267717 -152.60472012 432.44950199 C-149.25214768 426.5932392 -145.31220562 423.59605385 -139.56465006 420.15875101 C-116.93728046 406.61784469 -93.02540602 386.97845102 -85.52349377 360.68441486 C-80.44446935 338.17538502 -80.52264905 314.64834487 -80.54003906 291.68701172 C-80.5400955 290.43588708 -80.5400955 290.43588708 -80.54015309 289.15948719 C-80.55546041 267.43471658 -81.16193557 245.73753214 -81.96235144 224.02929628 C-82.42245718 211.42412412 -82.73833918 198.8213954 -82.95336914 186.2097168 C-82.97632027 184.86781365 -82.97632027 184.86781365 -82.99973505 183.49880136 C-83.09070691 178.11677848 -83.17694988 172.73468729 -83.26164965 167.3525625 C-83.38545336 159.5239938 -83.51626777 151.69554706 -83.65174866 143.86717224 C-83.66619257 143.0255778 -83.68063648 142.18398336 -83.69551808 141.31688606 C-83.89739256 129.71565053 -84.18248421 118.11922212 -84.54280911 106.52185024 C-84.61519485 104.17275348 -84.68500561 101.82359559 -84.75382435 99.47439182 C-84.77602176 98.71866356 -84.79821916 97.96293531 -84.82108922 97.1843062 C-84.86505142 95.6873241 -84.90893149 94.1903396 -84.952726 92.69335259 C-85.07967348 88.42104843 -85.225462 84.14992098 -85.38596207 79.8787528 C-85.5009699 76.68584861 -85.59003136 73.49218995 -85.68370056 70.29859924 C-85.73307028 69.16705542 -85.78244 68.03551159 -85.83330578 66.86967856 C-85.98964033 60.65569177 -85.80080448 57.06504671 -81.57519531 52.37060547 C-76.67510771 48.09490822 -72.87396823 47.82009976 -66.67675781 47.97998047 C-65.84179779 47.98564026 -65.00683777 47.99130005 -64.14657593 47.99713135 C-61.49718266 48.01940324 -58.84917516 48.06958023 -56.20019531 48.12060547 C-54.39682952 48.14068244 -52.59344239 48.15893112 -50.79003906 48.17529297 C-46.38456262 48.21923761 -41.98011338 48.28819946 -37.57519531 48.37060547 C-37.60661621 47.35861084 -37.60661621 47.35861084 -37.63867188 46.32617188 C-37.72274118 43.2161398 -37.77413975 40.10634788 -37.82519531 36.99560547 C-37.85871094 35.93470703 -37.89222656 34.87380859 -37.92675781 33.78076172 C-38.04480295 24.16008333 -35.96646084 16.06289482 -29.27832031 8.90185547 C-20.5047196 1.013664 -11.40809529 -0.00257752 0 0 Z M-17.51269531 22.12060547 C-21.33558679 28.14455567 -21.86346992 33.88916348 -21.70019531 40.80810547 C-21.65894531 43.30373047 -21.61769531 45.79935547 -21.57519531 48.37060547 C-16.29519531 48.37060547 -11.01519531 48.37060547 -5.57519531 48.37060547 C-5.57519531 43.09060547 -5.57519531 37.81060547 -5.57519531 32.37060547 C-0.29519531 32.37060547 4.98480469 32.37060547 10.42480469 32.37060547 C10.42480469 37.65060547 10.42480469 42.93060547 10.42480469 48.37060547 C15.70480469 48.37060547 20.98480469 48.37060547 26.42480469 48.37060547 C27.39730703 34.33615403 27.39730703 34.33615403 22.13574219 21.79248047 C16.6595484 16.69698464 9.72192638 15.99762498 2.54980469 16.05810547 C1.84944092 16.06374512 1.14907715 16.06938477 0.42749023 16.07519531 C-6.47724846 16.23671902 -12.63005111 16.87316601 -17.51269531 22.12060547 Z " fill="#EFCFB3" transform="translate(165.5751953125,7.62939453125)"/>
<path d="M0 0 C2.15543743 -0.0043554 4.30879349 -0.04067531 6.46386719 -0.07861328 C16.06558729 -0.15677133 23.57716973 1.10777425 31.67480469 6.55810547 C37.35461925 12.36700673 42.36072884 19.16123931 42.46386719 27.54638672 C42.45097656 28.47837891 42.43808594 29.41037109 42.42480469 30.37060547 C43.42002136 30.23074219 44.41523804 30.09087891 45.44061279 29.94677734 C69.00059709 26.63620105 92.56199313 23.33584402 116.12500763 20.0469017 C130.84855079 17.991749 145.57107089 15.92953878 160.29186583 13.85479498 C171.5512961 12.26801942 182.81187112 10.68961405 194.07342911 9.11800003 C200.49585415 8.22139094 206.91768217 7.3209056 213.33825684 6.41113281 C219.42105297 5.54933962 225.50522911 4.69803139 231.59056091 3.85433578 C233.8259748 3.54256605 236.06087469 3.22708316 238.29518127 2.90747452 C272.66928574 -2.00303539 272.66928574 -2.00303539 282.37011719 3.74560547 C288.87322655 8.888749 292.22952344 15.51194835 293.23786712 23.67556345 C293.31504541 24.35798243 293.3922237 25.04040141 293.47174072 25.74349976 C293.56097817 26.48274732 293.65021561 27.22199488 293.74215722 27.98364389 C294.04172402 30.47956939 294.33133487 32.97655106 294.62109375 35.47363281 C294.83746172 37.29353983 295.05444814 39.1133734 295.27199554 40.9331398 C295.87444767 45.98761488 296.46821506 51.0430792 297.06068707 56.09873247 C297.70819101 61.61103848 298.3635881 67.12240637 299.01812744 72.63388062 C300.18605282 82.47627974 301.34911555 92.3192449 302.51000977 102.16247559 C304.34718135 117.73507665 306.19998186 133.30580112 308.05500698 148.87628412 C311.52507154 178.00324673 314.98047373 207.13191883 318.42219016 236.26224478 C318.90020934 240.30813842 319.37830557 244.35402295 319.85644531 248.39990234 C319.95136861 249.20315031 320.04629191 250.00639827 320.14409167 250.83398709 C321.70836175 264.06913316 323.2807146 277.30330787 324.85581467 290.53716893 C326.50025947 304.35503434 328.13674035 318.1738258 329.76572824 331.99352205 C330.75795249 340.40916422 331.75605953 348.82406167 332.76229158 357.23804067 C333.44499658 362.95184102 334.11987101 368.66653321 334.78873596 374.38197006 C335.17238998 377.65838921 335.56042393 380.93417869 335.9555397 384.20923805 C338.6672551 406.71532719 338.6672551 406.71532719 338.85797119 417.55722046 C338.89173815 418.58989908 338.89173815 418.58989908 338.92618728 419.64343989 C338.90172477 425.83989363 336.50083758 430.79983868 332.67089844 435.54248047 C323.67232289 443.39436929 312.6217105 445.17222888 301.14746094 447.16748047 C299.80499423 447.40762844 298.46266556 447.64854921 297.12046814 447.89019775 C294.33223248 448.39014824 291.5429779 448.88373139 288.75268555 449.37207031 C285.18131751 449.99721854 281.61217452 450.63412005 278.04363346 451.27518845 C275.28266192 451.77064344 272.52100974 452.26220507 269.75909233 452.75235748 C267.80463632 453.0992694 265.8504435 453.44766311 263.89625549 453.79608154 C262.71079636 454.00339905 261.52533722 454.21071655 260.30395508 454.42431641 C259.26235733 454.60766541 258.22075958 454.7910144 257.14759827 454.97991943 C254.42480469 455.37060547 254.42480469 455.37060547 250.42480469 455.37060547 C250.44575195 456.2782666 250.46669922 457.18592773 250.48828125 458.12109375 C250.55671402 461.50938189 250.60672764 464.89692897 250.64453125 468.28564453 C250.66456801 469.74832799 250.69180572 471.21093213 250.7265625 472.67333984 C250.77543694 474.78356557 250.79785128 476.89272683 250.81542969 479.00341797 C250.83637695 480.27072754 250.85732422 481.53803711 250.87890625 482.84375 C250.19558091 488.15091013 247.96635922 490.96781862 244.07025146 494.51320648 C239.17576546 497.63565845 233.34465107 496.91988758 227.74707031 496.87854004 C225.81012676 496.88789998 225.81012676 496.88789998 223.83405304 496.89744902 C220.25615363 496.91413627 216.67868137 496.90589902 213.10078049 496.89350414 C209.23976508 496.88445339 205.37882309 496.89842348 201.51782227 496.90942383 C193.95664089 496.92721341 186.3956183 496.92336714 178.83443069 496.91177326 C172.68949327 496.90274094 166.54460036 496.90151407 160.3996582 496.90586853 C159.52518933 496.90648146 158.65072045 496.90709439 157.74975252 496.9077259 C155.9733041 496.9090048 154.19685569 496.91030165 152.4204073 496.91161627 C135.76133841 496.92302335 119.10235756 496.90990635 102.44330311 496.8884148 C88.14803038 496.8705437 73.85288757 496.87364777 59.55761719 496.89208984 C42.95829885 496.91349429 26.35905768 496.9219247 9.75972748 496.90964079 C7.98980205 496.90836659 6.21987662 496.90710911 4.44995117 496.90586853 C3.57910653 496.90525143 2.70826188 496.90463433 1.811028 496.90399852 C-4.32676514 496.90054435 -10.46450935 496.90637543 -16.60229492 496.91578674 C-24.08189909 496.92700338 -31.56133534 496.92397379 -39.04092026 496.90266377 C-42.85740145 496.89214876 -46.67360264 496.88803899 -50.49008179 496.90126038 C-54.62611879 496.91537214 -58.76144834 496.8985266 -62.89746094 496.87854004 C-64.10543083 496.88746293 -65.31340073 496.89638581 -66.55797577 496.90557909 C-72.85214322 496.84637761 -76.81770653 496.66402563 -81.57519531 492.37060547 C-83.21828419 490.45513288 -84.2818047 488.55942034 -85.57519531 486.37060547 C-86.27515625 486.80115234 -86.97511719 487.23169922 -87.69628906 487.67529297 C-90.62795169 489.40167232 -93.5987621 490.96653414 -96.63769531 492.49560547 C-98.17103516 493.27291016 -98.17103516 493.27291016 -99.73535156 494.06591797 C-108.58785716 498.13295631 -121.4778024 497.88130745 -130.63769531 494.74560547 C-142.71377511 489.45654142 -150.41055432 481.98401174 -155.62988281 469.88623047 C-159.39136731 459.87632957 -158.98734204 446.90097229 -155.03613281 437.02294922 C-154.55402344 436.14767578 -154.07191406 435.27240234 -153.57519531 434.37060547 C-153.2549385 433.73664132 -152.93468168 433.10267717 -152.60472012 432.44950199 C-149.25214768 426.5932392 -145.31220562 423.59605385 -139.56465006 420.15875101 C-116.93728046 406.61784469 -93.02540602 386.97845102 -85.52349377 360.68441486 C-80.44446935 338.17538502 -80.52264905 314.64834487 -80.54003906 291.68701172 C-80.5400955 290.43588708 -80.5400955 290.43588708 -80.54015309 289.15948719 C-80.55546041 267.43471658 -81.16193557 245.73753214 -81.96235144 224.02929628 C-82.42245718 211.42412412 -82.73833918 198.8213954 -82.95336914 186.2097168 C-82.97632027 184.86781365 -82.97632027 184.86781365 -82.99973505 183.49880136 C-83.09070691 178.11677848 -83.17694988 172.73468729 -83.26164965 167.3525625 C-83.38545336 159.5239938 -83.51626777 151.69554706 -83.65174866 143.86717224 C-83.66619257 143.0255778 -83.68063648 142.18398336 -83.69551808 141.31688606 C-83.89739256 129.71565053 -84.18248421 118.11922212 -84.54280911 106.52185024 C-84.61519485 104.17275348 -84.68500561 101.82359559 -84.75382435 99.47439182 C-84.77602176 98.71866356 -84.79821916 97.96293531 -84.82108922 97.1843062 C-84.86505142 95.6873241 -84.90893149 94.1903396 -84.952726 92.69335259 C-85.07967348 88.42104843 -85.225462 84.14992098 -85.38596207 79.8787528 C-85.5009699 76.68584861 -85.59003136 73.49218995 -85.68370056 70.29859924 C-85.73307028 69.16705542 -85.78244 68.03551159 -85.83330578 66.86967856 C-85.98964033 60.65569177 -85.80080448 57.06504671 -81.57519531 52.37060547 C-76.67510771 48.09490822 -72.87396823 47.82009976 -66.67675781 47.97998047 C-65.84179779 47.98564026 -65.00683777 47.99130005 -64.14657593 47.99713135 C-61.49718266 48.01940324 -58.84917516 48.06958023 -56.20019531 48.12060547 C-54.39682952 48.14068244 -52.59344239 48.15893112 -50.79003906 48.17529297 C-46.38456262 48.21923761 -41.98011338 48.28819946 -37.57519531 48.37060547 C-37.60661621 47.35861084 -37.60661621 47.35861084 -37.63867188 46.32617188 C-37.72274118 43.2161398 -37.77413975 40.10634788 -37.82519531 36.99560547 C-37.85871094 35.93470703 -37.89222656 34.87380859 -37.92675781 33.78076172 C-38.04480295 24.16008333 -35.96646084 16.06289482 -29.27832031 8.90185547 C-20.5047196 1.013664 -11.40809529 -0.00257752 0 0 Z M-17.51269531 22.12060547 C-21.33558679 28.14455567 -21.86346992 33.88916348 -21.70019531 40.80810547 C-21.65894531 43.30373047 -21.61769531 45.79935547 -21.57519531 48.37060547 C-16.29519531 48.37060547 -11.01519531 48.37060547 -5.57519531 48.37060547 C-5.57519531 43.09060547 -5.57519531 37.81060547 -5.57519531 32.37060547 C-0.29519531 32.37060547 4.98480469 32.37060547 10.42480469 32.37060547 C10.42480469 37.65060547 10.42480469 42.93060547 10.42480469 48.37060547 C15.70480469 48.37060547 20.98480469 48.37060547 26.42480469 48.37060547 C27.39730703 34.33615403 27.39730703 34.33615403 22.13574219 21.79248047 C16.6595484 16.69698464 9.72192638 15.99762498 2.54980469 16.05810547 C1.84944092 16.06374512 1.14907715 16.06938477 0.42749023 16.07519531 C-6.47724846 16.23671902 -12.63005111 16.87316601 -17.51269531 22.12060547 Z M-69.57519531 64.37060547 C-69.57519531 158.09060547 -69.57519531 251.81060547 -69.57519531 348.37060547 C-64.886695 344.35189091 -61.06030321 340.79060518 -57.20800781 336.15185547 C-41.25039912 317.75752835 -25.86159064 308.98954439 -2.36824989 302.89692307 C2.99015324 301.47649589 8.10031416 299.76228462 13.24810791 297.70196533 C35.25472697 289.05263509 55.44881847 287.79857187 78.91611218 288.05334306 C83.8447506 288.09480819 88.77315646 288.07234733 93.70188904 288.05754089 C102.97667043 288.03894605 112.2503307 288.07533351 121.52491754 288.13301343 C132.10835248 288.19604088 142.69151108 288.1954342 153.27509797 288.19028819 C174.99208988 288.18111263 196.70816926 288.25148632 218.42480469 288.37060547 C218.42480469 293.65060547 218.42480469 298.93060547 218.42480469 304.37060547 C161.99480469 304.37060547 105.56480469 304.37060547 47.42480469 304.37060547 C36.03980469 338.52560547 36.03980469 338.52560547 24.42480469 373.37060547 C9.71263205 390.68556528 -3.97528673 406.0225675 -20.72930908 420.92553711 C-29.03597567 428.34817152 -37.12382052 436.01566575 -45.22151524 443.66461039 C-48.7081711 446.94823639 -52.25655274 450.15061279 -55.83335876 453.33581543 C-57.66007287 455.01001586 -59.48608646 456.68498106 -61.3112793 458.36083984 C-62.57553238 459.44658295 -62.57553238 459.44658295 -63.86532593 460.55426025 C-66.55566474 462.93853018 -66.55566474 462.93853018 -69.57519531 467.37060547 C-69.57519531 471.66060547 -69.57519531 475.95060547 -69.57519531 480.37060547 C30.74480469 480.37060547 131.06480469 480.37060547 234.42480469 480.37060547 C234.42480469 343.09060547 234.42480469 205.81060547 234.42480469 64.37060547 C171.06480469 64.37060547 107.70480469 64.37060547 42.42480469 64.37060547 C42.42480469 74.93060547 42.42480469 85.49060547 42.42480469 96.37060547 C37.14480469 96.37060547 31.86480469 96.37060547 26.42480469 96.37060547 C26.42480469 85.81060547 26.42480469 75.25060547 26.42480469 64.37060547 C21.14480469 64.37060547 15.86480469 64.37060547 10.42480469 64.37060547 C10.410625 66.34802734 10.39644531 68.32544922 10.38183594 70.36279297 C10.34702208 72.31236882 10.31202614 74.26194554 10.2722168 76.21142578 C10.23805703 78.20176946 10.22861325 80.19248851 10.21972656 82.18310547 C10.02033171 90.95647909 8.89602197 98.13746601 3.05371094 104.9753418 C-2.6286513 110.22940945 -9.55992401 112.00011432 -17.12597656 111.71044922 C-24.24425923 110.72274492 -28.53609334 106.84343424 -33.12988281 101.56591797 C-36.25923465 96.81268626 -36.84078982 92.03321233 -36.98925781 86.44091797 C-37.02486816 85.27834473 -37.06047852 84.11577148 -37.09716797 82.91796875 C-37.13116699 81.45858887 -37.16516602 79.99920898 -37.20019531 78.49560547 C-37.32394531 73.83435547 -37.44769531 69.17310547 -37.57519531 64.37060547 C-48.13519531 64.37060547 -58.69519531 64.37060547 -69.57519531 64.37060547 Z " fill="#010100" transform="translate(165.5751953125,7.62939453125)"/>
<path d="M0 0 C52.8 0 105.6 0 160 0 C160 52.8 160 105.6 160 160 C107.2 160 54.4 160 0 160 C0 107.2 0 54.4 0 0 Z " fill="#000000" transform="translate(224,88)"/>
<path d="M0 0 C4.87638713 5.88034919 4.67320794 15.27257794 5.45703125 22.62890625 C5.57375183 23.68355576 5.69047241 24.73820526 5.81072998 25.82481384 C6.06049691 28.0838337 6.3081912 30.34308352 6.5539856 32.60253906 C7.20720358 38.60214382 7.87678996 44.5999153 8.546875 50.59765625 C8.6807814 51.79810577 8.81468781 52.9985553 8.95265198 54.23538208 C10.10663886 64.52317669 11.37249476 74.79423395 12.6875 85.0625 C14.59634007 100.00173624 16.30385659 114.95680973 17.93777466 129.9284668 C19.38363081 143.15595364 20.94055935 156.36332836 22.625 169.5625 C24.55272194 184.66800864 26.28560987 199.78824513 27.9375 214.92626953 C29.38345381 228.15448762 30.940466 241.36259689 32.625 254.5625 C34.43113182 268.71523607 36.07702232 282.87923584 37.625 297.0625 C39.19861373 311.47385401 40.86621227 325.86778019 42.6875 340.25 C42.89479274 341.89005315 43.10206829 343.53010846 43.30932617 345.17016602 C43.41077438 345.97265274 43.5122226 346.77513947 43.616745 347.60194397 C43.7174379 348.39845871 43.8181308 349.19497345 43.921875 350.015625 C44.02172195 350.80509018 44.12156891 351.59455536 44.22444153 352.40794373 C45.22894541 360.36212936 46.21506313 368.31840772 47.16989136 376.27871704 C47.34527664 377.73450088 47.52255602 379.19005806 47.70193481 380.64535522 C50.05064204 399.72386442 50.05064204 399.72386442 48.1875 405.4375 C42.76885951 411.02034172 32.74468682 411.53240596 25.40625 412.7890625 C24.3083313 412.98221039 23.2104126 413.17535828 22.07922363 413.37435913 C19.77034023 413.77917482 17.4608783 414.18070334 15.15087891 414.57910156 C11.63439289 415.18587923 8.11984232 415.8029916 4.60546875 416.421875 C2.35166851 416.81571131 0.09776553 417.20896022 -2.15625 417.6015625 C-3.19712769 417.78385406 -4.23800537 417.96614563 -5.3104248 418.15396118 C-6.79741882 418.40960342 -6.79741882 418.40960342 -8.31445312 418.67041016 C-9.1733313 418.81902496 -10.03220947 418.96763977 -10.91711426 419.12075806 C-13.46399855 419.50111947 -16.0006391 419.80994203 -18.55986786 420.09010887 C-19.36849006 420.17893534 -20.17711226 420.26776181 -21.01023817 420.35927999 C-21.62560957 420.42634259 -22.24098098 420.4934052 -22.875 420.5625 C-22.87559709 419.76282582 -22.87619418 418.96315164 -22.87680936 418.13924491 C-22.91268649 370.76672619 -22.96929954 323.39427128 -23.05292095 276.02181154 C-23.06293867 270.33648139 -23.07278275 264.65115095 -23.08251953 258.96582031 C-23.0844609 257.83395118 -23.08640228 256.70208204 -23.08840248 255.53591384 C-23.11944182 237.19766788 -23.13640853 218.85943443 -23.14819422 200.52116714 C-23.16059576 181.71091597 -23.1880746 162.90073061 -23.22961307 144.09052098 C-23.25477702 132.4792624 -23.26811517 120.86811295 -23.26642957 109.25682671 C-23.26639987 101.29955203 -23.28098674 93.3423887 -23.30716428 85.38515739 C-23.32184326 80.79103999 -23.32998499 76.19715093 -23.32080269 71.60301399 C-23.31254085 67.39836321 -23.3226011 63.19417204 -23.34733662 58.98958959 C-23.35303979 57.46729579 -23.35197466 55.9449587 -23.34351245 54.42267774 C-23.33299926 52.35448965 -23.34703617 50.28785444 -23.36719131 48.21977043 C-23.36946964 46.49621985 -23.36946964 46.49621985 -23.37179399 44.73785007 C-24.11915847 40.02180179 -26.38550309 36.87145183 -29.9375 33.75 C-34.05291509 31.22764882 -38.01622964 31.41032817 -42.67668152 31.40428162 C-43.47962106 31.39934364 -44.28256059 31.39440566 -45.10983163 31.38931805 C-47.80914019 31.37391994 -50.50842492 31.36557616 -53.20776367 31.35717773 C-55.13921825 31.34760103 -57.07067072 31.33759107 -59.00212097 31.32717896 C-64.25382851 31.30010134 -69.50554506 31.27910724 -74.75728393 31.25917697 C-80.24260975 31.23733503 -85.72790771 31.20993758 -91.21321106 31.18312073 C-101.60414072 31.13316958 -111.99508583 31.08823974 -122.38604575 31.04509836 C-134.21420373 30.99574668 -146.04233374 30.94082088 -157.87046468 30.88541877 C-182.20528371 30.77156154 -206.54012955 30.66473065 -230.875 30.5625 C-227.65752726 28.41751817 -226.02819788 28.1219986 -222.2578125 27.6328125 C-221.10861328 27.47941406 -219.95941406 27.32601562 -218.77539062 27.16796875 C-217.52951172 27.00941406 -216.28363281 26.85085937 -215 26.6875 C-213.02326134 26.42577154 -211.04652407 26.16403176 -209.06988525 25.90155029 C-207.01987177 25.630273 -204.96944734 25.3622837 -202.91894531 25.09472656 C-196.73298896 24.28452463 -190.55443604 23.42075501 -184.375 22.5625 C-181.95575798 22.2289576 -179.53648704 21.89562494 -177.1171875 21.5625 C-172.3093748 20.89953202 -167.50214296 20.23255097 -162.6953125 19.5625 C-152.66246215 18.16687381 -142.62966496 16.77761087 -132.58203125 15.4921875 C-131.54299652 15.35916229 -131.54299652 15.35916229 -130.48297119 15.22344971 C-127.14814388 14.79733451 -123.81292358 14.3749178 -120.47705078 13.95703125 C-113.84024547 13.11605712 -107.24562704 12.15742462 -100.65209961 11.02685547 C-96.42599884 10.32021427 -92.18475126 9.75033948 -87.9375 9.1875 C-86.01298483 8.92865296 -84.08850763 8.66952354 -82.1640625 8.41015625 C-81.14860352 8.27367676 -80.13314453 8.13719727 -79.08691406 7.99658203 C-73.32711134 7.21815932 -67.5699276 6.42076716 -61.8125 5.625 C-59.36067969 5.28643947 -56.90885674 4.94789804 -54.45703125 4.609375 C-53.22033691 4.43857422 -51.98364258 4.26777344 -50.70947266 4.09179688 C-46.74780795 3.54494286 -42.78603149 2.99890525 -38.82421875 2.453125 C-37.50073185 2.27075607 -36.17724552 2.08838307 -34.85375977 1.90600586 C-32.3451498 1.5603469 -29.8365243 1.21480067 -27.32788086 0.86938477 C-26.1910083 0.71268311 -25.05413574 0.55598145 -23.8828125 0.39453125 C-22.82852051 0.24927002 -21.77422852 0.10400879 -20.68798828 -0.0456543 C-18.39466683 -0.36511107 -16.10334198 -0.69464765 -13.8125 -1.03125 C-4.60833333 -2.30416667 -4.60833333 -2.30416667 0 0 Z " fill="#FDE9A6" transform="translate(438.875,25.4375)"/>
<path d="M0 0 C42.24 0 84.48 0 128 0 C128 42.24 128 84.48 128 128 C125.03 128 122.06 128 119 128 C117.77748166 123.38904042 116.74683715 118.79434448 115.88671875 114.1015625 C115.69013672 113.04453125 115.49355469 111.9875 115.29101562 110.8984375 C114.89044594 108.7257683 114.49972439 106.55125907 114.11914062 104.375 C111.66482712 91.40107267 106.08033685 81.13665521 95.41796875 73.0390625 C93.31050852 71.62523878 91.1933263 70.27555147 89 69 C89.95614628 66.55364375 90.92877277 64.14765353 92.0703125 61.78125 C95.55153333 54.25149827 96.51413079 46.54614199 94.3046875 38.453125 C93.36416204 36.16108817 92.28112148 34.11908774 91 32 C90.61070312 31.30132812 90.22140625 30.60265625 89.8203125 29.8828125 C85.25888579 22.73027949 77.84130515 19.61376838 70 17 C58.58716075 16.03575735 50.73624463 18.2389385 41.7890625 25.296875 C36.5382881 30.29542879 33.51301968 36.84184052 32.62890625 44.0078125 C32.47103122 51.4186521 33.64848443 56.77203617 36.90625 63.44140625 C38 66 38 66 38 70 C36.3125 71.38671875 36.3125 71.38671875 34 72.6875 C24.57468254 78.60055294 18.13518842 87.2688438 15.16552734 98.02148438 C14.47757519 101.21374111 13.87502817 104.40834407 13.3125 107.625 C12.9144208 109.78416095 12.51471694 111.94302308 12.11328125 114.1015625 C11.92846191 115.10993164 11.74364258 116.11830078 11.55322266 117.15722656 C10.84135173 120.81522525 9.95488246 124.39847987 9 128 C6.03 128 3.06 128 0 128 C0 85.76 0 43.52 0 0 Z " fill="#E5E8EC" transform="translate(240,104)"/>
<path d="M0 0 C36.96 0 73.92 0 112 0 C112 21.12 112 42.24 112 64 C75.04 64 38.08 64 0 64 C0 42.88 0 21.76 0 0 Z " fill="#000000" transform="translate(272,408)"/>
<path d="M0 0 C3.01657514 1.44585503 5.11993351 2.87470222 7.48339844 5.25634766 C8.47397247 6.24714828 8.47397247 6.24714828 9.48455811 7.25796509 C10.18574768 7.96947723 10.88693726 8.68098938 11.609375 9.4140625 C12.33618469 10.14370209 13.06299438 10.87334167 13.81182861 11.62509155 C16.12929198 13.9537388 18.4396995 16.28924826 20.75 18.625 C22.32115444 20.20618653 23.89276371 21.78692125 25.46484375 23.3671875 C29.31518653 27.2395669 33.15976117 31.11760171 37 35 C35.62792243 38.07678681 34.06507306 40.18280642 31.68441772 42.55609131 C31.00012192 43.24313644 30.31582611 43.93018158 29.61079407 44.63804626 C28.48546516 45.75258934 28.48546516 45.75258934 27.33740234 46.88964844 C26.54707108 47.68027176 25.75673981 48.47089508 24.94245911 49.28547668 C22.32833109 51.89821109 19.70718956 54.50378954 17.0859375 57.109375 C15.27232057 58.91926192 13.45914463 60.72959083 11.64639282 62.54034424 C7.36125966 66.81862071 3.07170349 71.09241301 -1.22002828 75.36406636 C-6.10663779 80.22831018 -10.9875599 85.09824386 -15.86801457 89.96866179 C-25.90569789 99.98544799 -35.95049593 109.99507421 -46 120 C-49.01657514 118.55414497 -51.11993351 117.12529778 -53.48339844 114.74365234 C-54.47397247 113.75285172 -54.47397247 113.75285172 -55.48455811 112.74203491 C-56.18574768 112.03052277 -56.88693726 111.31901062 -57.609375 110.5859375 C-58.69958954 109.49147812 -58.69958954 109.49147812 -59.81182861 108.37490845 C-62.12929198 106.0462612 -64.4396995 103.71075174 -66.75 101.375 C-68.32115444 99.79381347 -69.89276371 98.21307875 -71.46484375 96.6328125 C-75.31518653 92.7604331 -79.15976117 88.88239829 -83 85 C-81.62792243 81.92321319 -80.06507306 79.81719358 -77.68441772 77.44390869 C-77.00012192 76.75686356 -76.31582611 76.06981842 -75.61079407 75.36195374 C-74.48546516 74.24741066 -74.48546516 74.24741066 -73.33740234 73.11035156 C-72.54707108 72.31972824 -71.75673981 71.52910492 -70.94245911 70.71452332 C-68.32833109 68.10178891 -65.70718956 65.49621046 -63.0859375 62.890625 C-61.27232057 61.08073808 -59.45914463 59.27040917 -57.64639282 57.45965576 C-53.36125966 53.18137929 -49.07170349 48.90758699 -44.77997172 44.63593364 C-39.89336221 39.77168982 -35.0124401 34.90175614 -30.13198543 30.03133821 C-20.09430211 20.01455201 -10.04950407 10.00492579 0 0 Z " fill="#FBD66F" transform="translate(135,340)"/>
<path d="M0 0 C89.76 0 179.52 0 272 0 C272 5.28 272 10.56 272 16 C182.24 16 92.48 16 0 16 C0 10.72 0 5.44 0 0 Z " fill="#000000" transform="translate(112,264)"/>
<path d="M0 0 C0.64839844 0.32742187 1.29679687 0.65484375 1.96484375 0.9921875 C8.32120645 4.80322334 12.60755437 11.31471464 14.69335938 18.33300781 C16.85157117 27.00237857 18 35.04023822 18 44 C-7.08 44 -32.16 44 -58 44 C-58 30.59969794 -56.56069092 15.23193487 -47 5 C-34.35653994 -5.98037419 -14.93780073 -8.07015353 0 0 Z " fill="#5BD4B1" transform="translate(324,188)"/>
<path d="M0 0 C26.4 0 52.8 0 80 0 C80 10.56 80 21.12 80 32 C53.6 32 27.2 32 0 32 C0 21.44 0 10.88 0 0 Z " fill="#FF826E" transform="translate(288,424)"/>
<path d="M0 0 C3.04581486 1.36113013 5.13839026 2.89330096 7.48339844 5.25634766 C8.14378113 5.91688141 8.80416382 6.57741516 9.48455811 7.25796509 C10.18574768 7.96947723 10.88693726 8.68098938 11.609375 9.4140625 C12.69958954 10.50852188 12.69958954 10.50852188 13.81182861 11.62509155 C16.12929198 13.9537388 18.4396995 16.28924826 20.75 18.625 C22.32115444 20.20618653 23.89276371 21.78692125 25.46484375 23.3671875 C29.31518653 27.2395669 33.15976117 31.11760171 37 35 C33.59246925 42.13513167 27.94186682 47.63800662 20.5625 50.5625 C13.14492137 52.79397212 6.98141017 53.19460498 -0.1875 50 C-6.44588132 46.51656134 -10.31066264 41.83372718 -13.9375 35.75 C-15.95383355 28.63352863 -16.16725786 21.72547426 -13.125 14.875 C-9.82486492 8.9825849 -4.94816754 4.51580339 0 0 Z " fill="#A8B0BB" transform="translate(39,436)"/>
<path d="M0 0 C31.68 0 63.36 0 96 0 C96 5.28 96 10.56 96 16 C64.32 16 32.64 16 0 16 C0 10.72 0 5.44 0 0 Z " fill="#000000" transform="translate(112,232)"/>
<path d="M0 0 C31.68 0 63.36 0 96 0 C96 5.28 96 10.56 96 16 C64.32 16 32.64 16 0 16 C0 10.72 0 5.44 0 0 Z " fill="#000000" transform="translate(112,200)"/>
<path d="M0 0 C31.68 0 63.36 0 96 0 C96 5.28 96 10.56 96 16 C64.32 16 32.64 16 0 16 C0 10.72 0 5.44 0 0 Z " fill="#000000" transform="translate(112,168)"/>
<path d="M0 0 C31.68 0 63.36 0 96 0 C96 5.28 96 10.56 96 16 C64.32 16 32.64 16 0 16 C0 10.72 0 5.44 0 0 Z " fill="#000000" transform="translate(112,136)"/>
<path d="M0 0 C21.12 0 42.24 0 64 0 C64 5.28 64 10.56 64 16 C42.88 16 21.76 16 0 16 C0 10.72 0 5.44 0 0 Z " fill="#000000" transform="translate(192,456)"/>
<path d="M0 0 C21.12 0 42.24 0 64 0 C64 5.28 64 10.56 64 16 C42.88 16 21.76 16 0 16 C0 10.72 0 5.44 0 0 Z " fill="#000000" transform="translate(192,424)"/>
<path d="M0 0 C4.98669007 2.49334503 8.49675474 5.99350949 11 11 C11.54360446 15.95482094 11.56437074 19.87125852 9.3125 24.375 C6.14745126 27.96775803 2.78798338 31.69412413 -2.171875 32.23828125 C-8.01846537 32.40659218 -11.43192863 32.02425335 -16 28 C-20.39893104 23.00661882 -21.35676337 20.08984773 -21.28125 13.5390625 C-20.73016315 8.56397287 -17.99302299 5.87480597 -14.375 2.6875 C-9.71860985 -0.62098774 -5.60468123 -0.62082623 0 0 Z " fill="#E9CAAF" transform="translate(309,136)"/>
<path d="M0 0 C5.28 0 10.56 0 16 0 C16.08093399 4.22955053 16.1404757 8.45755211 16.1875 12.6875 C16.21263672 13.88568359 16.23777344 15.08386719 16.26367188 16.31835938 C16.27333984 17.47529297 16.28300781 18.63222656 16.29296875 19.82421875 C16.3086792 20.88729248 16.32438965 21.95036621 16.34057617 23.0456543 C15.95103225 26.42477331 15.00795454 28.27990964 13 31 C10.19084526 32.40457737 8.11189466 32.24895157 5 32 C1.8640843 30.22015595 1.15897264 29.47691793 0 26 C-0.08291953 24.0079697 -0.10738177 22.01326287 -0.09765625 20.01953125 C-0.09443359 18.85615234 -0.09121094 17.69277344 -0.08789062 16.49414062 C-0.07951172 15.27919922 -0.07113281 14.06425781 -0.0625 12.8125 C-0.05798828 11.58595703 -0.05347656 10.35941406 -0.04882812 9.09570312 C-0.03703076 6.06378135 -0.01909514 3.0318846 0 0 Z " fill="#EDCEB2" transform="translate(144,72)"/>
<path d="M0 0 C1.56189767 1.40057328 3.07343397 2.85821011 4.546875 4.3515625 C5.39121094 5.20234375 6.23554688 6.053125 7.10546875 6.9296875 C8.41451172 8.26386719 8.41451172 8.26386719 9.75 9.625 C10.63816406 10.5221875 11.52632812 11.419375 12.44140625 12.34375 C14.63213077 14.55803069 16.81666366 16.77843404 19 19 C17.68 23.29 16.36 27.58 15 32 C8.25919575 26.47349666 2.1928871 20.30550441 -3.9375 14.125 C-5.01343727 13.04403726 -6.08960731 11.96330617 -7.16601562 10.8828125 C-9.78003292 8.25787359 -12.39088596 5.62981372 -15 3 C-12.84951754 0.84951754 -11.45785938 0.24761825 -8.625 -0.75 C-7.85414063 -1.03359375 -7.08328125 -1.3171875 -6.2890625 -1.609375 C-3.35708994 -2.10971162 -2.52755457 -1.53036656 0 0 Z " fill="#A6AEB9" transform="translate(166,329)"/>
<path d="M0 0 C-0.45142775 1.77260631 -0.91140523 3.5430368 -1.375 5.3125 C-1.63023437 6.29863281 -1.88546875 7.28476562 -2.1484375 8.30078125 C-3 11 -3 11 -5 14 C-7.97 11.03 -10.94 8.06 -14 5 C-11.81385576 2.81385576 -10.46120051 2.31743465 -7.5625 1.375 C-6.38880859 0.98441406 -6.38880859 0.98441406 -5.19140625 0.5859375 C-3 0 -3 0 0 0 Z " fill="#9FA6B1" transform="translate(195,317)"/>
</svg>
